<?xml version="1.0" encoding="UTF-8"?><svg id="Layer_1" xmlns="http://www.w3.org/2000/svg" width="507.87" height="507.87" viewBox="0 0 507.87 507.87"><path d="M244.47,1c106.83-4.63,206.26,59.38,244.04,159.22,44.15,116.68-.05,244.98-105.31,310C212.67,575.56-9.49,430.15,5.14,234.52,14.63,107.56,116.8,6.53,244.47,1Z" fill="#515151"/><path d="M244.1,17.97c-7.53-2.47-16.8-2.26-24.75-1.87-5.94.29-13.42,1.27-19.26,2.47-2.23.46-8.77,1.08-6.84,4.02-1.61.36-1.6-.91-2.52-1.74-2.12.97-7.85,1.86-9.07,3.81-.35.56.02,1.16-.21,1.61-.45.9-2.01,1.29-1.6,2.8l11.55-3.23c-.06,1.22-10.2,5.71-8.78,6.93,4.09-.64,6.87,2.1,10.3,3.17,1.78-.87,3.53-2.22,5.32-3.03,10.17-4.62,20.12-7.72,30.97-10.63,4.64-1.25,9.7-2.03,14.22-3.35.67-.2.81.27.67-.93Z" fill="#515151"/><path d="M285.24,25.36h7.63c.3,0,2.04-.43,1.62-1.38-6.74-2.21-13.87-3.62-21.03-3.24-2.03.11-6.41.52-8.3.95-1.39.31-2.61,1.67-3.81,1.71-1.33.04-6.82-1.94-9.22-2.14-9.19-.75-16.83,4.02-25.73,5.12l-.7.65.36,1.07c-1.85.51-3.63,1.24-5.51,1.66-1.52.34-10.17,1.06-10.18,2.29l2.76,2.54c-1.32-.23-6.55,1.41-3.7,2.54l-1.63,1.14c-1.02,1.51,1.74,2.59,2.9,2.69,2.8.24,8.1-1.64,10.31,1.7,1.69,2.55.41,8.7-.51,11.55-.62,1.9-1.83,3.04-2.28,4.88.7.7,3.23-3.31,4.73.12.61,1.39.47,2.2-.8,3.06-2.2-3.44-8.82.5-7.41,3.29,1.82,2.11,4.26.4,6.02-.92,1.34.93.4,2.29-.44,3.25-3.37,3.78-8.54,3.47-9.46,10.42-.32,2.46-.46,7.03-.52,9.65-.07,2.85,1,9.68,3.55,11.28,1.21.76,3.31.74,4.14,1.41,1,.82.49,2.87,2.74,2.86,2.86-.02,6.21-7.79,8.16-9.91,1.08-1.17,2.58-1.8,3.62-2.86,1.65-1.68,2.74-4.85,4.47-6.16,2.9-2.2,7.61-1.49,11.11-2.76s6.63-5.62,9.38-6.34c2.29-.6,5.07,0,7.52-.34,4.26-.57,8.5-3.3,12.37-4.97.93-.98-3.59-2.23-4.16-2.31.49-3.01,3.75-.41,5.09.72,3.98-.83-1.37-8.06-.47-9.03,5.39,2.16,1.95-.75,2.31-2.52,1.14-1.22,3.57.89,4.1-1.79l-.87-1.23,2.77.92c.6-2.45,1.86-4.41,1.29-7.06-.23-1.06-1.82-2.58-1.08-3.59.81-1.12,4.11-.06,5.35.02-4.33-3.45,1.46-5.16,2.32-9l10.61-5.56c-3.04-2.79-7.88-.96-11.31-1.63-.97-.19-1.52-1.19-2.62-1.54-1.82-.57-4.34.28-5.47-1.23Z" fill="#515151"/><path d="M179.39,25.36l-3.04.45-.2,3.25c2.06.18,3.04-1.98,3.23-3.69Z" fill="#515151"/><path d="M171.07,28.14c-.52-.48-4.64,1.38-5.26,1.9-1.24,1.02-2.34,4.37-4.67,5.03l.23-2.77c-1.23-1.14-12.5,4.26-14.33,5.31-1.34.76-2.93,1.63-3.69,3.01,3.12.4,7.37-2.16,10.3-1.28,1.81.54,1.1,2.45,4.48,1.05,1.33-.55,8.98-6.07,9.96-7.15.4-.44,3.28-4.83,2.99-5.09Z" fill="#515151"/><path d="M178.47,31.83c-2.88-.2-5.83,0-8.3,1.63-.35.23-2.31,2.13-2.32,2.29-.08,1.48,4.76-.99,5.07-.69l-2.76,4.39c4.14,3.61,8.66.25,12.74-.2,1.43-.16,2.61.37,3.59.29.8-.07,4.91-2.24,4.91-2.86-3.56-5.02-9.09-.28-13.29-3.21l.35-1.64Z" fill="#515151"/><path d="M166.78,37.47c-.72.18-3.13,2.24-3.57,2.92-1.3,2,3.62.11,4.37-.72.29-.32.79-1.21.72-1.59-.5-.62-.68-.83-1.52-.61Z" fill="#515151"/><path d="M173.39,87.3l4.45,3.66c2.15-.93,3.56-3.45,3.42-5.73-.11-1.88-1.79-4.27-1.82-5.55-.02-.77,1.2-3.34,1.8-3.71,3.4-2.06,4.7,5.64,6.2,5.29.69-.16,7.13-5.16,7.23-6.24.18-1.97-5.09-6.73-6.46-8.36l.17-.64c4.22-2.18,3.63-6.87.97-10.17-1.31-1.62-5.17-3.38-5.58-4.15-.81-1.54,2.01-3.63,2.09-5.32-.08-3.59-8.03-2.02-10.06-1.28-.53.19-4.04,2.54-3.79,1.76l.92-2.08c-4.11-.37-15.64,4.74-16.18,9.05-.37,2.9.82,4.6,3.58,5.17,1.93.4,4.45,1.23,5.93,1.47,2.03.33,4.19-.16,6.21-.23.81,2.32,4.22,5.75,4.22,7.89,0,3.39-3.96,4.62-6.08,6.45-1.29,1.12-2.22,3.58-4.02,3.88-1.06.18-1.97-.44-3.07-.38-1.81.11-4.1,1.78-5.16,3.2-2.52,3.36,3.19,2.06,5.08,2.36,3.67.58,3.52,5.13,5.62,7.32.59.61,4.36,3.01,5.11,3.22.8.23.53-.01.75-.54.71-1.75-2.02-4.17-1.5-6.34Z" fill="#515151"/><path d="M80.24,261.1c-2.03-.34-4.8.25-6.93,0-1.44,0,.91-4.12,1.17-4.84.83-2.36,3.55-9.53,3.23-11.54-.5-3.18-5.38-2.18-6.83.55-1.59,2.99-.11,5.22-4.28,6.82-6.15,2.35-8.88-1.55-10.6-6.95-2.58-8.11.83-25.54,8.89-29.88,5.06-2.72,6.38.07,11.13,1.39l2.14-3.84c3.29-.14,6.96-1.32,9.26,1.4.35.41.31,1.21.58,1.48.47.46,1.32,0,2.08,1.38,1.07,1.95.02,4.16.07,6.39.08,3.42,2.54,9.63,5.5,4.54,3.7-6.36-3.62-13.16,2.14-20.5,4.68-5.96,13.96-7.98,16.43-15,1.33-3.78.66-7.87,2.75-11.11v2.78s.92.23.92.23c2.68-6.92,8.65-8.96,14.85-11.77.64-.85-1.19-1.76.42-4.18,2.03-3.05,12.78-7.74,16.64-8.54-1.36,1.68-4.26,3.3-4.89,5.51-1.16,4.02,5.45-1.65,5.95-1.91,4.32-2.21,11.99-2.11,10.49-9.15l-4.01,2.7-2.69-2.23-1.13.73.45,2.04-2.31-.7c1.99-2.69-.7-2.8-.46-5.03s7.17-7.55.76-7.19c-3.77.21-7.08,3.43-10.27,4.11-.86.18-.89-.31-.44-.91.85-1.17,9.1-6.78,10.63-7.4,6.01-2.43,9.43,1.72,14.69-.1,2.59-.89,5.41-3.45,7.9-4.59s5.31-.69,6.4-3.29c1.6-3.82.14-7.21-2.4-10.25-1.36-1.63-4.6-3.28-4.99-5.21s1.38-3.87,1.34-6.36c-.01-.99-1.52-9.59-1.89-9.94-.73-.68-.85.34-1.05.58-1.67,1.96-6.15,7.76-9.08,5.64-2.61-1.89,1.17-5.45.34-8.2-.24-.79-2.19-2.26-2.89-3.13-1.13-1.43-.68-2.98-3.02-3.49-1.78-.38-3.1.55-4.82.78l-.32-.9-.88-.05c-1.06,2.36-2.41,5.4-3.8,7.53-.9,1.39-3.57,3.98-3.86,4.92-1.03,3.33.64,4.69-1.86,8.77-3.08,5.03-9.72,5.78-11.52,10.21-1.75,4.33-1.1,9.06-6.59,11.49-.97.29-2.21-1.08-2.54-1.9-1.99-4.93,5.4-13.12,4.73-13.75-3.05.88-6.15.28-8.55-1.85-1.1-.98-1.76-2.79-3.13-3.35-1.74-.71-3.64-.22-5.43-.35l2.76-6.24c-2.9-1.11-.59-4.15.55-5.92,3.1-4.8,14.67-14.09,19.93-16.12,1.57-.61,3.41-.49,4.91-1.09,1.59-.63,3.45-3.15,5.12-2.74-.72,1.83-4.13,3.92-2.08,5.77,1.97-.7,5.36-4.17,7.32-2.77.32.23.51,2,1.47.48,1.61-2.55-1.89-7.94-1.1-9.19,1.78-.83,3.64-.33,5.51-.72,3.94-.83,4.82-3.79,6.92-6.49,1.44-1.85,6.04-5.02,2.74-7.39-2.71-1.95-5.39,2.97-7.42,4.57-.88.69-6.45,4.09-7.11,3.97-1.95-.35,1.15-4.15,1.13-4.4-.06-1.17-2.71.2-3.22-.23.53-1.17.23-2.79.56-3.83.29-.94,2.5-2.58,2.95-4.02s-.8-2.18-.53-2.79c.14-.31,3.19-3.24,3.73-3.68,2.3-1.86,4.82-2.82,7.11-4.45.7-.5,2.1-1.04,1.89-2.03-5.04-.77-8.71,4.05-12.25,6.93l-.68-.23c.66-.7,6.32-5.95,5.54-6.7-4.37,1.84-13.47,4.5-11.34,10.67l1.17-.04c-.01.22.08.49,0,.69-.12.3-3.77,4.79-4.13,5.11-1.51,1.35-3.77,1.57-5.1,3.21l1.24,1.09c1.79.48,3.73-2.97,5.68-2.48-1.7,2.92-4.38,4.55-7.16,6.24l.69-2.31c-.44-.45-3.29,1.86-4.14,2.09-4.99,1.33-6.03-2.28-8.56-2.14-1.8.1-7.37,5.37-8.09,4.67-.55-.94,2.62-2.4,1.38-3.01-.49-.24-5.85,1.64-7.39.23l1.38-2.08c-1.55-2.16-3.69-1.51-5.91-.83-6.19,1.9-21.05,17.21-25.99,22.54-19.88,21.49-35.48,46.96-46.67,73.97.54.78.99-.15,1.31-.54,1.06-1.27,1.92-3.02,3.07-4.32,2.16-2.44,7.34-6.28,8.77-8.33,1.21-1.75,1.62-5.32,2.57-7.38,1.64.62.39,2.2.44,3.44.04,1.05.7,2.1.5,3.24-.18,1.01-5.87,4.58-7.2,5.78-9.49,8.57-16.95,27.17-14.42,39.87.9,4.55,1.74,4.17,1.7,9.35-.02,3.23.48,8.14,0,11.09-.21,1.31-1.48,2.08-1.38,3.23.05.59,1.35,2.5,1.66,3.93.83,3.84.07,9.4,3.44,12.04,1.03-2.56-.61-5-.91-7.63-.37-3.14.16-6.72.03-9.71-.09-2.09-1-4.35-1-6.47,0-.74.65-6.91,2.36-5.55,1.47,1.16.72,9.56,1.04,11.91.93,6.9,6.09,15.84,6.31,22.38.13,3.81-1.35,5.14.87,9.26,1.15,2.15,9.76,10.61,11.87,11.7,3.29,1.71,3.02.41,5.58.01,5.51-.86,5.43,5.64,9.01,8.04,2.25,1.51,5.95,1.61,7.52,2.54,1.8,1.06,3.78,7.99,4.93,9.98,1.02,1.77,9.97,8.99,11.34,9,2.43.03.8-5.35,4.05-4.55,1.47.36,1.62,2.41,2.24,3.33,2.91,4.32,5.73,9.22,4.98,14.82-.81,6.02-12.32,12.94-7.96,20.03.57.93,1.41.55,1.8,1.01,1.01,1.22-2.15,4.01-2.48,5.44-1.28,5.62,4.81,9.23,7.49,13.58,4.52,7.32,7.08,15.84,13.92,21.67,9.09,7.75,14.07,6.61,16.34,20.64,1.39,8.62,1.58,17.62,3.42,26.16.88,4.08,3.4,8.45,3.91,12.26.41,3.05.09,6.36.64,9.53.65,3.79,6.84,17.45,9.24,20.34.72.87,1.82.8,2.31,1.39.55.66.4,2.42.95,3.68,4.48,10.34,24.2,21.47,35.28,21.58.52,0,1.29.25,1.17-.48-6.05-1.11-10.28-3.61-13.78-8.64-2.32-3.34-4.27-5.96-1.47-9.84-2.53-.55-9-5.62-6.68-8.3.47-.55,1.55-.83,1.83-1.41.62-1.29-.23-3.4,1.14-4.83-4.94-2.79-4.19-4.65,1.39-3.03l.65-3.74c9.25-1.5,10.56-5.55,4.43-12.43,4.34.77,7.5,2.48,10.56-1.7,1.14-1.56,7.96-13.6,8.21-14.93.48-2.6-1.55-5.17-1.44-7.65.31-6.88,14.58-8.37,18.51-12.22,4.24-4.15,5.12-14.91,4.83-20.58-.09-1.77-.93-4.34-.92-6.01.04-4.77,8.87-10.6,10.85-15.96,1.29-3.49,1.74-11.11-2.21-13.03-2.03-.98-4.34-.57-6.58-1.74-3.68-1.93-4.2-5.43-9.69-6.02-2.67-.29-8.2.63-10.29-.34-1.09-.51-2.5-3.57-4.04-4.74-1.14-.88-10.02-4.47-11.17-4.51-1.51-.05-4.02,2.75-5.73,1.53s1.03-4.38,1.44-5.56c.96-2.74-.38-3.1-1.09-5.42-.86-2.79-.22-3.28-2.39-5.93-6.11-7.48-11.04-4.75-17.75-9.06-1.95-1.25-6.04-5.38-7.46-5.94-1.42-.56-2.69.06-4.32-.77-2.07-1.05-4.19-3.87-2.14-5.95-3.65.65-6.95,1.87-10.75,1.27-.78-.12-8.46-2.99-9.11-3.37-1.47-.86-.84-5.56-4.87-2.53l-.29,3.17c-4.98,1.52-1.76-2.06-1.34-3.89.36-1.57-2.54.33-2.99.71-.78.66-1.16,1.81-1.89,2.27-.85.54-2.15.52-3.14,1.02-3.49,1.78-4.47,4.14-7,6.87l-3.48-3.43c-4.9-3.25-5.16.35-7.7,1.05s-6.2-3.91-6.57-6.2c-.63-3.99,1.78-10.04,1.16-12.68-.42-1.8-2.96-3.42-4.66-3.7Z" fill="#fff"/><path d="M141.49,47.55c-1.98-.34-8.27,3.74-9.51,1.85-.42-.64,1.14-2.44-1.3-2.31-1.95.1-5.63,2.22-7.36,3.31-1.06.67-8.41,6.13-8.62,6.63-.11.28.02.78-.02,1.13,1.98-.51,3.54-1.48,5.54-.23l-4.44,2.07c.84,2.64-.97,2.56-1.57,4.64,1.98-.5,4.16-.21,6.13-.57,1.58-.29,3.39-1.81,4.74-1.79,1.03.02.58,1.21,1.82,1.45,3.59.69,5.91-2.65,8.56-4.4-2.64-1.26.38-5.42,1.67-7.12s3.19-2.87,4.35-4.66Z" fill="#515151"/><path d="M388.18,50.46c-1.48-1.67-5.09-2.44-6.17.08,3.24,6.37,3.64,12.54,9.59,17.07,3.11,2.37,7.71,5.14,11.52,5.81-4.43-4.18-13.05-8.69-14.05-15.34-.36-2.38,1.1-5.37-.89-7.62Z" fill="#515151"/><path d="M380.47,86.37c8.77,4.37,17.32,1.3,5.22-5.46-6.21-3.47-13.95-3.34-20.01-6.79l.92-1.37c-4.75-3.16-9.26-.4-13.55,1.69-1.16.57-2.63.7-3.72,1.36-1.16.71-1.63,2.17-2.16,2.46-1.16.66-3.39.26-4.15,2.55,1.06.38,1.58-.71,2.09-.91,1.86-.76-.66,2.17-.8,2.44-2.91,5.51-3.14,8.81-8.22,13.51-4.97,4.6-9.17,3.65-8.2,11.88.65,5.46,3.41,14.17,10.27,9.14.93-.68,3.23-3.99,4.37-3.21.19,2.8,5.45,8.89,5.58,10.88.12,1.87-2.97,2.17-4.18,3.2v1.16s1.86-.46,1.86-.46v1.85s2.32-3.23,2.32-3.23c1.27.04,1.08,1.64,3.17.85.22-2.72,2.86-2.09,4.47-3.15,2.51-1.64.65-4.52,1.23-7.09.34-1.51,2.64-3.29,2.64-4.72,0-1.59-2.63-3.21-3.47-4.83-1.44-2.79-1.2-5.45.17-8.21.71-1.45,3.17-3.44,3.55-4.31.41-.94.15-2.05.58-3.11,1.26-3.04,6.54-2.18,6.58.62-.79,3.13-4.17,5.41-4.58,8.79-.47,3.88,1.97,8.99,6.24,9.43,3.87.39,6.39-4.13,11.62-1.02.27.16.91,0,.59.79-1.55,3.77-7.53,1.81-10.52,3.36-.82.43-1.84,2.14-2.88,2.66-.67,1.53,2.75-.75,3.63.29.97,3.33-.09,5.24-2.94,2.26-3.93,3.68,2.71,6.58-2.77,10.62-2.18,1.6-1.92.27-3.73.02-3.59-.51-6.01,2.49-8.83,4.08-3.5-3.01-2.3-1.82-5.67-1.06-2.98.67-5.85-.9-5.6-4.18.12-1.62,1.3-2.26,1.42-3.27.17-1.38-1.04-2.97-.03-4.57l-1.12-.71c-3.76,2.82-4.67,2.44-3.35,7.5.18.7.93,1.21,1.16,2.07s.63,4.03,0,4.64c-1.83,1.08-4.04.28-6.02.68-4.59.92-10.48,12.05-16.11,14.4-2.48,1.03-2.78.87-5.03-.64l.02,3.02c-.89.51-8.56-.45-6.2,2.1.64.7,3.02,1.66,4.11,2.72,3.4,3.31,4.83,7.69,2.89,12.17-1.43,3.3-2.81,1.77-5.22,1.72-1.66-.03-3.46.15-5.07,0-4.23-.41-7.5-2.95-10.66,1.41,1.2,4.42,1.44,7.21.12,11.65-.41,1.36-1.81,2.93-1.72,4.25s1.42,2.1,1.67,3.03c.38,1.4-1.15,2.58,1.44,3.14,1.64.36,3.54-.29,5.1.44.76.35,2.39,2.68,2.32,3.51-.05.64-2.32,4.74-2.89,5.41-2.22,2.59-6.31,3.79-8.49,7.22-1.91,3.01-1.32,5.6-2.03,8.6-.86,3.67-6.16,5.53-8.9,7.74-4.07,3.28-13.47,16.42-13.68,21.48-.16,3.74,2.2,7.88,1.82,12.43-.32,3.77-3.48,7.8-3.61,10.72-.03.58.81,5.07,1.01,5.86,1.29,5.08,6.59,7.71,9.32,11.94,1.84,2.86,2.46,5.8,4.91,8.5,1.19,1.31,9.85,8.34,11.1,8.77,3.04,1.05,6.6-1.76,9.92-2.05,3.14-.28,5.92,1.07,8.27.9,3.56-.26,9.58-3.76,13.66-4.4,3.36-.53,6.1-.32,8.77,1.91,1.02.85,2.05,2.85,2.82,3.19,1.4.64,4.52.08,6.49.45,10.16,1.9,1.98,13.93,3.31,19.8.39,1.72,4.82,6.52,6.1,8.68,2.81,4.75,5.46,13.63,5.83,19.13.46,6.86-5.24,10.41-7.07,17-2.85,10.3,1.62,13.12,3.96,21.7,1.55,5.68.14,11.36,1.38,17.11.78,3.63,3.57,7.91,3.99,11.26.68,5.45-3.06,11.69,5.83,13.06,4.65-1.79,9.8-2.09,14.4-4,8.79-3.66,17.35-13.33,21.96-21.49,1.43-2.53,1.18-4.77,3.92-6.71,4.33-3.06,6.01-.86,6.96-7.83.73-5.37-.93-7.78,4.14-11.58,5.64-4.23,13.31-4.82,15.84-12.36,3.6-10.74-.14-17.15.12-26.78.41-14.85,24.01-29.17,30.35-43.05,1.48-3.23,6.78-18.27,2.84-20.31-.64-.33-4.4,1.65-5.45,1.98-2.34.74-9.14,2.92-11.07,2.1-2.83-1.22-2.46-5.58-3.73-8.29-2.19-4.64-6.85-7.32-8.88-10.99-1.11-2-1.45-4.41-2.67-6.58-.78-1.38-2.07-2.1-2.64-3.83s-.32-4.47-.93-6c-.63-1.57-3.19-3.18-4.02-5.23-1.33-3.29-2.75-6.44-4.14-9.73-1.76-4.16-2.62-6.05-.84-10.48,1.06-.26.76.2,1.05.58,3.8,4.87,6.72,10.3,9.66,15.74.63,1.17,1.8,2.18,2.31,3.23,1.17,2.4.97,5.38,2.29,7.88,3.01,5.7,7.17,6.94,9.23,14.81.63,2.41,1.19,11.13,3.88,11.39,2.1.21,12.11-4.6,14.4-5.94,2.97-1.73,11.36-7,13.57-9.08,1.55-1.46,3.02-3.8,4.02-5.69.88-1.68,3.66-8.11,3.71-9.65.15-4.31-9.72-5.93-8.2-11.71-.73-.85-3.02,3.24-3.46,3.7-1.7,1.82-5.57,3.32-7.51,1.26-.89-.94-.31-2.87-.82-4.04-.35-.79-4.36-4.45-5.49-6.07-1.43-2.05-7.47-11.81-1.89-11.53,3.2.16,7.1,9.11,10.84,10.9,3.89,1.86,5.01.78,8.49-.66,2.03,2.62,2.25,5.01,5.61,6.44,4.97,2.12,9.21-.25,14.1.91-.28-18.57-4.16-37.28-9.47-55-8.46-28.2-22.05-55.4-40.26-78.53-5.15-6.54-19.72-23.1-27.8-24.44-3.57-.59-3.04,1.19-5.07,1.64-1.32.29-2.71-.07-4.03.13-1.76.28-5.47,1.8-6.04,3.68s1.65,5.29-2.58,3.93c-3.49-1.12-.6-5.37-4.6-5.34l1.78,5.22-3.15,2.93c-.42,1.4,2.72,2.39.66,3.87l-4.84-1.85,3.23,3.01c.54,1.28-2.61,1.08-3.25.96-4.45-.85-4.69-3.52-6.52-6.44-.46-.74-3.22-2.92-2.7-3.53Z" fill="#fff"/><path d="M271.84,92.84c2.1.09,3.85,1.48,5.9,1.74,2.9.36,11.6-2.25,12.83-4.98.48-1.06-1.92-4.87-3.28-5.08-2.18-.34-8.23,1.74-10.69,2.23-2.8-2.4-4.7-3.03-7.53-.14-.47,1.14,2.51.91,2.77,1.15.64,1.83-2.9.14-2.31,1.61,1.41.38,2.79.53,3.69,1.85-.61.74-1.71.37-1.38,1.61Z" fill="#515151"/><path d="M309.28,114.57c-3.41-.64-6.69,2.6-6.91,5.8-.12,1.76,1.46,3.83.44,5.75l1.38-.92c.79,1.88-.31,2.84-.46,4.62l3.63.08c.4,1.6,1.81,3.18.56,4.8-4.42.24-1.83,1.51-2.41,3.57-.28,1.01-1.94,1.34-1.78,2.64l6,.69c-.96,1.6-2.55.81-3.95,1.59-.87.49-3,3.01-2.97,4.19.39.39,5.14-2.05,5.87-2.22,2.93-.66,8.08.1,10.63-1.39.63-.37,1.25-.55,1.06-1.48l-1.38.46c-.29-1.91,2.21-2.52,2.32-4.43.13-2.32-3.21-1.95-3.93-2.97-.53-.74-.72-3.07-1.69-4.32-.58-.75-1.44-.98-2-1.7-.84-1.07-.96-2.79-1.82-3.72-.98-1.05-2.14-.63-3.03-1.58,1.67-3.67,5.41-6.42-1.4-5.78l1.84-3.69Z" fill="#515151"/><path d="M292.18,131.22c-.91,3.33,1.97,5.45-1.34,8.18-.36,1.34,1.68,2.55,2.84,2.37.32-.05,5.47-2.44,5.69-2.67,1.77-1.8.51-4.26.85-5.6.24-.93,1.56-1.51,1.67-2.53.15-1.36-.93-2.59-2.19-2.89-5.74-1.37-2.4,4.03-7.53,3.14Z" fill="#515151"/><path d="M178.93,137.22c-5.4,2-8.18,7.82-12.01,11.78l8.77,2.55-.92,1.84,5.08-.46c-1.42,1.59,3.91,3.78,4.38,3.7,1.45-.27-.14-6.71-.43-7.88-.16-.62-.99-1.15-1.1-1.71-.14-.72.53-1.64.35-1.91-.35-.53-3.91-1.62-4.72-2.35-2.36-2.14,1.13-5.01.59-5.57Z" fill="#515151"/><path d="M84.18,242.61c2.77-.93,4.41-2.44,7.61-1.83.79.15,5.86,2.87,6.69,3.47,3.22,2.35,5.65,7.06,10.65,3.21-1.46-2.27-3.84-3.1-5.69-4.47-4.1-3.05-7.15-6.32-12.91-5.35-2.03.34-6.47,2.47-6.35,4.97Z" fill="#515151"/><path d="M124.85,255.09c1.31-1.19-6.28-6.19-8.15-6.32-.56-.04-5.05.39-5.27.53-1.44.91,1.67,2.43,1.4,3.7-.23,1.13-3.67.6-4.62.71,1.08,2.37,4.5,1.17,5.69,1.45.64.15,1.06,1.19,1.54,1.28.29.05,4.33-1.71,5.51-1.8,1.09-.08,2.62.82,3.9.45Z" fill="#515151"/><path d="M100.18,253.27c-2.74.82,2.49,3.66,2.94,1.58.23-1.04-2.06-1.84-2.94-1.58Z" fill="#515151"/><path d="M440.4,399.61c1.29-1.29,3.72-6.52,4.71-8.46,3.74-7.3,6.9-14.97,10.51-22.34.56-1.24-1.52-8.35-2.36-8.32-2.39,3.13-3.74,7.2-6.75,9.89-3.81,3.41-10.03,3.43-10.93,9.41-.23,1.56.06,3.06-.12,4.5-.63,5.19-5.53,5.8-5.09,12.47.43,6.52,6.24,6.65,10.01,2.86Z" fill="#515151"/><path d="M285.24,25.36c1.13,1.51,3.66.66,5.47,1.23,1.11.34,1.66,1.35,2.62,1.54,3.42.66,8.27-1.16,11.31,1.63l-10.61,5.56c-.87,3.84-6.65,5.55-2.32,9-1.24-.08-4.53-1.14-5.35-.02-.73,1.01.86,2.54,1.08,3.59.57,2.65-.69,4.61-1.29,7.06l-2.77-.92.87,1.23c-.53,2.68-2.96.57-4.1,1.79-.37,1.77,3.08,4.68-2.31,2.52-.9.97,4.45,8.2.47,9.03-1.34-1.12-4.6-3.72-5.09-.72.57.08,5.09,1.33,4.16,2.31-3.86,1.68-8.11,4.4-12.37,4.97-2.45.33-5.24-.26-7.52.34-2.75.72-5.89,5.07-9.38,6.34s-8.21.55-11.11,2.76c-1.73,1.31-2.82,4.48-4.47,6.16-1.03,1.05-2.53,1.68-3.62,2.86-1.95,2.12-5.31,9.88-8.16,9.91-2.24.02-1.74-2.04-2.74-2.86-.82-.67-2.93-.65-4.14-1.41-2.54-1.61-3.61-8.44-3.55-11.28.06-2.62.2-7.18.52-9.65.91-6.95,6.09-6.63,9.46-10.42.85-.95,1.78-2.32.44-3.25-1.77,1.32-4.2,3.03-6.02.92-1.41-2.78,5.21-6.73,7.41-3.29,1.28-.86,1.41-1.67.8-3.06-1.5-3.44-4.03.57-4.73-.12.45-1.84,1.67-2.98,2.28-4.88.92-2.85,2.2-9,.51-11.55-2.22-3.34-7.51-1.46-10.31-1.7-1.16-.1-3.91-1.17-2.9-2.69l1.63-1.14c-2.85-1.13,2.37-2.77,3.7-2.54l-2.76-2.54c0-1.24,8.65-1.96,10.18-2.29,1.88-.42,3.66-1.15,5.51-1.66l-.36-1.07.7-.65c8.9-1.1,16.54-5.87,25.73-5.12,2.41.2,7.9,2.18,9.22,2.14,1.2-.04,2.42-1.39,3.81-1.71,1.88-.43,6.26-.84,8.3-.95,7.15-.39,14.28,1.02,21.03,3.24.42.96-1.32,1.38-1.62,1.38h-7.63Z" fill="#fff"/><path d="M173.39,87.3c-.52,2.17,2.21,4.6,1.5,6.34-.21.52.05.77-.75.54-.74-.22-4.52-2.61-5.11-3.22-2.1-2.19-1.94-6.75-5.62-7.32-1.88-.3-7.6,1-5.08-2.36,1.06-1.42,3.35-3.1,5.16-3.2,1.1-.06,2.01.56,3.07.38,1.8-.3,2.73-2.76,4.02-3.88,2.12-1.84,6.08-3.06,6.08-6.45,0-2.13-3.41-5.57-4.22-7.89-2.02.07-4.18.56-6.21.23-1.48-.24-4-1.07-5.93-1.47-2.76-.57-3.94-2.27-3.58-5.17.54-4.31,12.06-9.42,16.18-9.05l-.92,2.08c-.25.79,3.26-1.56,3.79-1.76,2.03-.74,9.98-2.31,10.06,1.28-.08,1.7-2.91,3.78-2.09,5.32.41.77,4.27,2.54,5.58,4.15,2.67,3.3,3.25,7.99-.97,10.17l-.17.64c1.38,1.62,6.64,6.39,6.46,8.36-.1,1.08-6.53,6.08-7.23,6.24-1.5.35-2.8-7.35-6.2-5.29-.6.36-1.82,2.93-1.8,3.71.03,1.28,1.71,3.67,1.82,5.55.13,2.28-1.27,4.8-3.42,5.73l-4.45-3.66Z" fill="#fff"/><path d="M244.1,17.97c.13,1.2,0,.73-.67.93-4.52,1.33-9.58,2.11-14.22,3.35-10.85,2.91-20.8,6.01-30.97,10.63-1.79.82-3.54,2.16-5.32,3.03-3.42-1.07-6.21-3.81-10.3-3.17-1.42-1.22,8.72-5.71,8.78-6.93l-11.55,3.23c-.41-1.5,1.15-1.9,1.6-2.8.23-.45-.14-1.05.21-1.61,1.22-1.95,6.95-2.85,9.07-3.81.93.84.91,2.11,2.52,1.74-1.93-2.94,4.61-3.56,6.84-4.02,5.84-1.2,13.31-2.18,19.26-2.47,7.95-.38,17.22-.59,24.75,1.87Z" fill="#fff"/><path d="M440.4,399.61c-3.78,3.79-9.58,3.66-10.01-2.86-.44-6.67,4.46-7.28,5.09-12.47.17-1.45-.12-2.94.12-4.5.9-5.98,7.12-6,10.93-9.41,3-2.68,4.36-6.76,6.75-9.89.84-.03,2.92,7.09,2.36,8.32-3.61,7.37-6.77,15.04-10.51,22.34-.99,1.94-3.42,7.17-4.71,8.46Z" fill="#fff"/><path d="M309.28,114.57l-1.84,3.69c6.8-.64,3.07,2.11,1.4,5.78.89.95,2.05.52,3.03,1.58.86.93.98,2.65,1.82,3.72.56.71,1.42.95,2,1.7.97,1.25,1.16,3.58,1.69,4.32.73,1.02,4.07.65,3.93,2.97-.11,1.91-2.61,2.52-2.32,4.43l1.38-.46c.19.93-.43,1.11-1.06,1.48-2.56,1.49-7.71.72-10.63,1.39-.73.17-5.47,2.61-5.87,2.22-.03-1.18,2.1-3.7,2.97-4.19,1.4-.79,2.99,0,3.95-1.59l-6-.69c-.16-1.3,1.5-1.63,1.78-2.64.57-2.06-2.01-3.32,2.41-3.57,1.26-1.62-.16-3.2-.56-4.8l-3.63-.08c.15-1.78,1.25-2.73.46-4.62l-1.38.92c1.02-1.92-.56-3.99-.44-5.75.22-3.19,3.5-6.43,6.91-5.8Z" fill="#fff"/><path d="M141.49,47.55c-1.16,1.78-3.08,2.98-4.35,4.66s-4.31,5.86-1.67,7.12c-2.65,1.75-4.97,5.09-8.56,4.4-1.24-.24-.79-1.43-1.82-1.45-1.35-.02-3.16,1.5-4.74,1.79-1.97.36-4.15.07-6.13.57.6-2.08,2.41-2,1.57-4.64l4.44-2.07c-2-1.25-3.56-.28-5.54.23.03-.36-.1-.85.02-1.13.21-.5,7.56-5.96,8.62-6.63,1.73-1.09,5.41-3.21,7.36-3.31,2.44-.13.88,1.67,1.3,2.31,1.24,1.89,7.53-2.19,9.51-1.85Z" fill="#fff"/><path d="M178.93,137.22c.54.55-2.95,3.43-.59,5.57.8.73,4.36,1.82,4.72,2.35.18.27-.49,1.2-.35,1.91.11.55.94,1.08,1.1,1.71.29,1.16,1.87,7.61.43,7.88-.47.09-5.8-2.11-4.38-3.7l-5.08.46.92-1.84-8.77-2.55c3.82-3.96,6.61-9.79,12.01-11.78Z" fill="#fff"/><path d="M271.84,92.84c-.33-1.25.77-.88,1.38-1.61-.9-1.32-2.29-1.48-3.69-1.85-.58-1.47,2.95.22,2.31-1.61-.26-.25-3.24-.02-2.77-1.15,2.83-2.89,4.73-2.26,7.53.14,2.46-.49,8.51-2.57,10.69-2.23,1.36.21,3.76,4.02,3.28,5.08-1.24,2.73-9.93,5.34-12.83,4.98-2.06-.26-3.8-1.65-5.9-1.74Z" fill="#fff"/><path d="M178.47,31.83l-.35,1.64c4.2,2.94,9.73-1.81,13.29,3.21,0,.63-4.1,2.79-4.91,2.86-.99.09-2.16-.45-3.59-.29-4.08.46-8.6,3.81-12.74.2l2.76-4.39c-.32-.3-5.15,2.17-5.07.69,0-.16,1.97-2.06,2.32-2.29,2.47-1.63,5.42-1.84,8.3-1.63Z" fill="#fff"/><path d="M171.07,28.14c.29.27-2.59,4.65-2.99,5.09-.98,1.07-8.63,6.6-9.96,7.15-3.38,1.4-2.67-.51-4.48-1.05-2.93-.87-7.18,1.68-10.3,1.28.76-1.38,2.35-2.25,3.69-3.01,1.84-1.04,13.11-6.44,14.33-5.31l-.23,2.77c2.34-.67,3.43-4.01,4.67-5.03.62-.51,4.74-2.38,5.26-1.9Z" fill="#fff"/><path d="M388.18,50.46c1.99,2.25.53,5.24.89,7.62.99,6.66,9.62,11.16,14.05,15.34-3.81-.67-8.41-3.44-11.52-5.81-5.95-4.54-6.34-10.7-9.59-17.07,1.08-2.52,4.69-1.75,6.17-.08Z" fill="#fff"/><path d="M292.18,131.22c5.13.89,1.79-4.51,7.53-3.14,1.26.3,2.34,1.52,2.19,2.89-.11,1.02-1.43,1.6-1.67,2.53-.35,1.34.91,3.8-.85,5.6-.22.22-5.37,2.62-5.69,2.67-1.17.18-3.2-1.03-2.84-2.37,3.3-2.73.43-4.85,1.34-8.18Z" fill="#fff"/><path d="M84.18,242.61c-.13-2.5,4.32-4.63,6.35-4.97,5.77-.97,8.82,2.31,12.91,5.35,1.85,1.37,4.23,2.2,5.69,4.47-5,3.85-7.43-.85-10.65-3.21-.83-.61-5.9-3.32-6.69-3.47-3.2-.62-4.84.9-7.61,1.83Z" fill="#fff"/><path d="M124.85,255.09c-1.29.37-2.82-.53-3.9-.45-1.18.09-5.21,1.85-5.51,1.8-.48-.09-.9-1.12-1.54-1.28-1.18-.28-4.61.92-5.69-1.45.95-.11,4.39.42,4.62-.71.26-1.27-2.84-2.79-1.4-3.7.22-.14,4.7-.57,5.27-.53,1.87.13,9.46,5.13,8.15,6.32Z" fill="#fff"/><path d="M166.78,37.47c.84-.21,1.02,0,1.52.61.08.37-.43,1.27-.72,1.59-.75.83-5.67,2.72-4.37.72.44-.68,2.84-2.73,3.57-2.92Z" fill="#fff"/><path d="M179.39,25.36c-.19,1.71-1.18,3.88-3.23,3.69l.2-3.25,3.04-.45Z" fill="#fff"/><path d="M100.18,253.27c.88-.26,3.17.53,2.94,1.58-.46,2.08-5.68-.76-2.94-1.58Z" fill="#fff"/><path d="M384.55,196.34c.95-.66.47-2.57.55-2.69.29-.41,3.6-.2,3.57-2.13-.06-.71-5.14-3.34-5.79-6.57-.9-4.48,3.79-1.33,4.03-1.52.06-.05.2-.94.7-1.39,1.53-1.37,3.87-.34,5.14.94.73.9-1.19,1.79-1.18,2.09,3.46,2.19,1.78,6.49,4.83,9.49,2.16,2.12,2.45.61,4.52.99,1.19.22,2.5,1.61,3.83,1.76,1.26-.02,1.25-1.43,1.94-1.88,1.69-1.1,5.31,2.47,7.26,2.35s4.47-3.67,7.23-2.11c.37.26.92,5.15.87,5.97-.16,2.41-3.42,13.43-5.53,14.39-2.83,1.29-5.14-1.73-8.02-1.58s-4.96,3.08-7.88,2.73c-3.33-.39-10.38-4.86-14.35-6.02-2.45-.72-6.31-1.61-8.37.45-1.21,1.21-.02,3.63-3.01,5.31-3.56,2-4.53-.45-7.25-1.92-.87-.47-1.99-.39-2.85-.84-1.53-.8-1.76-2.83-3.86-3.54-1.9-.64-4.38-.49-6.71-1.15-1.34-.38-7.45-2.82-7.04-4.51l3.19-2.88c.29-1.12-1.17-1.86-1.25-2.75-.07-.81.9-1.51.78-2.18-.09-.48-2.11-1.94-2.61-2.06-1.37-.34-2.02.68-3.14.82-6.09.75-12.3-.64-18.42.07-7.59.89-16.52,9.81-22.93,1.59,3.13-3.38,7.18-1.51,10.64-4.17,4.14-3.18,3.26-3.93,4.25-8.23s6.22-4.2,7.78-7.01c1.03-1.86-.33-3.78,2.58-5.28,2.57-1.33,4.76,2.03,7.67,1.7s5.47-4.22,7.59-4.41c2.62-.23,3.63,2.99,5.01,4.5,1.15,1.26,3.36,3.69,4.63,4.61,2.79,2.02,6.06,2.46,8.8,5.53,2.49,2.79,1.03,3.84.9,6.95.98-.93,2.78-2.69,2.94-4.04.14-1.16-1.69-2.47-.37-4.25,1.55-.07,2.95.65,3.9,1.83,1.05.28.81-1.09.61-1.54-.43-1.02-4.95-3.07-6.18-3.99-.76-.57-1.06-1.7-1.63-2.07-2.01-1.3-3.54-.25-5.98-3.26-1.69-2.09-3.04-5.36-5.01-7.5-.48-2.36.6-2.97,2.47-3.8l1.84,4.13,2.08-.72c2.54,4.82,7.2,5.6,11.23,8.21,5.8,3.76,2.91,4.05,4.24,9.17.56,2.17,4.28,4.92,5.1,6.94.25.61-.25,1.23,0,1.81.8,1.91,4.57,3.73,6.64,3.67ZM344.4,175.59c-2.1,1.05-2.49,2.93-.69,4.61,1.5-1.31,1.27-2.91.69-4.61ZM344.27,180.74c-2.85.44-1.94,3.07-1.81,4.79.04.56-.8,2.83.78,2.89.12,0,1.99-.98,2.08-1.06.9-.75.97-6.94-1.06-6.63ZM354.17,192.17c.19.3,6.26,2.92,6.6,2.81.59-.23.59-.65.71-1.16,1.26-5.26-.74-2.68-3.44-2.61-1.11.03-2.63-.73-3.94-.37.05.42-.13,1.03.06,1.33ZM393.71,193.77c-.61-.51-1.51-1.17-2.34-1.1l-4.42,2.08c2.21,1.95,6.28,1.07,8.45,1.72.84.25,2.61,3.29,3.1.38-1.18-.33-2.72-.93-3.69-1.64-.57-.42-.72-1.13-1.09-1.44ZM392.48,200.55c-1.34.12-2.59-.34-3.89-.52-.32-.04-1.71-.66-1.65.28.04.63,2.35,1.08,3,1.15.88.09,2.98.48,2.54-.92Z" fill="#515151"/><path d="M419.75,159.41c.31.35-1.71,4.84-2.11,5.51-.83,1.39-2.17,1.3-2.97,2.34,2.64.88,16.11,8.22,16.17,10.39-.26,1.84-1.98,2.96-3.67,3.28-5.22.99-9.76-5.77-16.84-2.99-4.02,1.58-3.35,4.45-8.91,2.35-3.35-1.27-5.59-4.94-5.2-8.59.15-1.42,3.8-8.81,4.79-9.56,2.05-1.55,4.47,2.35,6.74,2.35l-1.85,2.76c1.43.13,1.89,1.34,2.57,2.35,2.08-.55,3.45-2.62,5.75-2.35l-3.26-2.05c-.47-.5-.63-1.04-.23-1.66.45-.7,8.71-4.52,9.04-4.14Z" fill="#515151"/><path d="M454.89,178.36l.87-.07.27-.87.89.05,1.59,2.13c-.17,1.9-1.8.82-2.7,1.76,1.24,2.75,8.37,12.26,2.78,13.46-2.96.64-9.84-3.71-9.69-6.91.08-1.63,1.61-4.8,1.29-5.98-.59-2.18-9.13-6.83-9.99-12.23-1.17-7.3,9.92-14.29,11.44-4.99l-.95.52c-2.12-1.49-4.82,1.94-4.52,3.59s8.38,6.65,8.72,9.54Z" fill="#515151"/><path d="M344.27,180.74c2.03-.31,1.96,5.88,1.06,6.63-.1.08-1.97,1.06-2.08,1.06-1.58-.06-.74-2.33-.78-2.89-.13-1.72-1.05-4.35,1.81-4.79Z" fill="#fff"/><path d="M393.71,193.77c.37.31.52,1.02,1.09,1.44.97.71,2.51,1.31,3.69,1.64-.48,2.91-2.25-.13-3.1-.38-2.17-.64-6.25.23-8.45-1.72l4.42-2.08c.83-.07,1.73.59,2.34,1.1Z" fill="#fff"/><path d="M354.17,192.17c-.19-.3,0-.91-.06-1.33,1.31-.35,2.83.4,3.94.37,2.69-.07,4.7-2.65,3.44,2.61-.12.51-.12.94-.71,1.16-.34.1-6.41-2.51-6.6-2.81Z" fill="#fff"/><path d="M344.4,175.59c.59,1.7.82,3.3-.69,4.61-1.8-1.68-1.42-3.56.69-4.61Z" fill="#fff"/><path d="M392.48,200.55c.44,1.4-1.67,1.02-2.54.92-.65-.07-2.96-.52-3-1.15-.05-.94,1.33-.33,1.65-.28,1.29.18,2.55.64,3.89.52Z" fill="#fff"/></svg>